<?xml version="1.0" encoding="UTF-8" standalone="no"?>
<svg width="115px" height="25px" viewBox="0 0 115 25" version="1.1" xmlns="http://www.w3.org/2000/svg" xmlns:xlink="http://www.w3.org/1999/xlink" xmlns:sketch="http://www.bohemiancoding.com/sketch/ns">
    <title>Selectel.io 1</title>
    <description>Created with Sketch (http://www.bohemiancoding.com/sketch)</description>
    <defs></defs>
    <g id="Start" stroke="none" stroke-width="1" fill="none" fill-rule="evenodd" sketch:type="MSPage">
        <g id="logo:-selectel_white" sketch:type="MSLayerGroup">
            <path d="M72.7404748,7 C72.0108237,7 71.34345,7.03549585 70.7576623,7.10539537 C68.3361888,7.39373089 66.4727639,8.71062691 65.3697207,10.9124618 C64.3640369,12.9204347 64.2857143,14.9884775 64.2857143,15.5744321 C64.2857143,16.1573831 64.3640369,18.2142311 65.3721683,20.2175623 C66.4754834,22.4090214 68.3367328,23.7321975 70.7549428,24.0437418 C71.2664872,24.1095457 71.8737592,24.1428571 72.5593538,24.1428571 C74.6563868,24.1428571 76.8725354,23.8296745 76.8942917,23.826398 L77.1428571,23.7909021 L77.1428571,20.1416557 C77.1428571,20.1416557 74.7143129,20.3060288 73.4943298,20.3060288 C71.9781893,20.3060288 71.3238694,20.2090979 71.0418536,20.1274574 C69.3331702,19.633519 69.1615675,17.0450524 69.1672786,15.956149 C69.1683664,15.8259065 69.1683664,15.3229576 69.1672786,15.1940804 C69.1615675,14.0784185 69.3315384,11.4386195 71.0301596,11.0246833 C71.5267466,10.9037243 72.4054282,10.8395588 73.5702048,10.8395588 C74.7866525,10.8395588 77.1428571,11.0072084 77.1428571,11.0072084 L77.1428571,7.3410332 L76.8961954,7.30362604 C76.8766147,7.30062254 74.8619836,7 72.7404748,7" id="Fill-1" fill="#34302F" sketch:type="MSShapeGroup"></path>
            <path d="M109.714286,1 L114,1 L114,24.1428571 L109.714286,24.1428571 L109.714286,1 Z" id="Fill-2" fill="#34302F" sketch:type="MSShapeGroup"></path>
            <path d="M31.7142857,13.8571429 L24.8571429,13.8571429 C25.0346934,12.1890647 25.3789993,10.4285714 28.2416818,10.4285714 C31.5540641,10.4285714 31.63105,12.0822193 31.7060474,13.6812163 C31.7088882,13.7401655 31.711729,13.7991147 31.7142857,13.8571429 L31.7142857,13.8571429 Z M28.2981717,7 L28.0752063,7 C26.216975,7 23.6509127,7.37084127 21.9814736,9.13654524 C20.540602,10.6315839 19.7142857,12.8688482 19.7142857,15.2755157 L19.7142857,15.8901457 C19.7142857,16.2913927 19.7731082,18.3969893 20.9377941,20.4328156 C22.1467369,22.546285 24.1408202,23.8048649 26.7052019,24.0730869 C27.1460907,24.1195099 27.6208724,24.1428571 28.116102,24.1428571 C31.1911191,24.1428571 34.2187981,23.2673351 34.3459668,23.2298709 L34.558008,23.1679735 L34.558008,19.9362792 C34.558008,19.9362792 30.5661999,20.3554438 29.2480153,20.3953514 C25.219233,20.5167028 24.7458518,18.6019565 24.6971132,17.0957871 L36,17.0957871 L36,14.2096864 C36,11.8364109 35.3507114,10.0783083 34.0171209,8.83683165 C32.4118264,7.31844569 30.0211112,7 28.2981717,7 L28.2981717,7 Z" id="Fill-3" fill="#34302F" sketch:type="MSShapeGroup"></path>
            <path d="M57.4285714,13.8571429 L50.5714286,13.8571429 C50.7489717,12.1890647 51.0935475,10.4285714 53.9558273,10.4285714 C57.2680724,10.4285714 57.3456233,12.0822193 57.4203334,13.6812163 C57.42289,13.7401655 57.4257307,13.7991147 57.4285714,13.8571429 L57.4285714,13.8571429 Z M54.0125899,7 L53.7899085,7 C51.931429,7 49.3656909,7.37084127 47.6962805,9.13654524 C46.2551536,10.6315839 45.4285714,12.8688482 45.4285714,15.2755157 L45.4285714,15.8901457 C45.4285714,16.2913927 45.487673,18.3969893 46.6520588,20.4328156 C47.8612609,22.546285 49.85559,23.8048649 52.4193674,24.0730869 C52.8602486,24.1195099 53.3353022,24.1428571 53.8302432,24.1428571 C56.9054876,24.1428571 59.9328344,23.2673351 60.060281,23.2298709 L60.2723185,23.1679735 L60.2723185,19.9362792 C60.2723185,19.9362792 56.2805791,20.3554438 54.962137,20.3953514 C50.9337042,20.5167028 50.4603311,18.6019565 50.4113132,17.0957871 L61.7142857,17.0957871 L61.7142857,14.2096864 C61.7142857,11.8364109 61.0650083,10.0783083 59.7317209,8.83683165 C58.1258937,7.31844569 55.7352197,7 54.0125899,7 L54.0125899,7 Z" id="Fill-4" fill="#34302F" sketch:type="MSShapeGroup"></path>
            <path d="M102,13.8571429 L95.1428571,13.8571429 C95.3203856,12.1890647 95.6649328,10.4285714 98.5269754,10.4285714 C101.838946,10.4285714 101.916775,12.0822193 101.990911,13.6812163 C101.993751,13.7401655 101.996591,13.7991147 102,13.8571429 L102,13.8571429 Z M98.5836059,7 L98.3612007,7 C96.5026893,7 93.9369071,7.37084127 92.2677481,9.13654524 C90.8265964,10.6315839 90,12.8688482 90,15.2755157 L90,15.8901457 C90,16.2913927 90.0591026,18.3969893 91.2237885,20.4328156 C92.4327313,22.546285 94.4270947,23.8048649 96.9906361,24.0730869 C97.4315248,24.1195099 97.9065867,24.1428571 98.4015362,24.1428571 C101.476833,24.1428571 104.504232,23.2673351 104.631681,23.2298709 L104.844002,23.1679735 L104.844002,19.9362792 C104.844002,19.9362792 100.851914,20.3554438 99.5334495,20.3953514 C95.5052274,20.5167028 95.0315661,18.6019565 94.9828275,17.0957871 L106.285714,17.0957871 L106.285714,14.2096864 C106.285714,11.8364109 105.636706,10.0783083 104.302835,8.83683165 C102.697261,7.31844569 100.306545,7 98.5836059,7 L98.5836059,7 Z" id="Fill-5" fill="#34302F" sketch:type="MSShapeGroup"></path>
            <path d="M38.5714286,1 L42.8571429,1 L42.8571429,24.1428571 L38.5714286,24.1428571 L38.5714286,1 Z" id="Fill-6" fill="#34302F" sketch:type="MSShapeGroup"></path>
            <path d="M88.2857143,10.2595822 L88.2857143,6.65619424 L84.279737,6.65619424 L84.279737,1 L79.7142857,1 L79.7142857,16.4285714 L84.279737,16.4285714 L84.279737,10.2595822 L88.2857143,10.2595822 Z" id="Fill-7" fill="#B54C38" sketch:type="MSShapeGroup"></path>
            <path d="M6.14050449,12.621769 C7.29068204,13.0395565 10.4260097,14.1826695 11.1143884,14.4523524 C11.5784169,14.6336147 11.9234423,14.9129686 12.1416611,15.2829537 L12.2277781,15.4285714 L17.1428571,15.4285714 L17.1016102,15.0983756 C16.6531886,11.5073927 14.1348934,10.6093706 11.6996495,9.74091424 C10.8822348,9.44967878 9.42437706,8.96529951 8.35975911,8.61161698 C7.76976011,8.4154337 7.30350204,8.26069759 7.18226937,8.2170399 C5.77401951,7.70779232 4.62049761,7.17367644 4.76876378,5.78878828 C4.89473428,4.61583333 5.89887523,4.1342172 8.23378861,4.12620408 C10.5937846,4.13145405 15.3625484,4.51967589 15.4104841,4.52382061 L15.7312629,4.55007049 L15.7312629,0.909074628 L15.5077489,0.85243016 C15.4751415,0.84441704 10.9675157,0.0171314975 8.17219684,0.000276314477 L8.05681678,0 C6.02540312,0 4.34040834,0.340143121 3.04809593,1.01131098 C1.02532184,2.06102968 0,3.87890262 0,6.413259 C0,9.20016681 1.8363266,11.0567238 6.14050449,12.621769" id="Fill-8" fill="#B54C38" sketch:type="MSShapeGroup"></path>
            <path d="M12.3693136,18 C11.8405127,19.2095991 10.3655505,19.3244344 8.87841637,19.3244344 L8.69962488,19.3244344 C6.32691838,19.3244344 1.22608628,18.7517299 1.17469386,18.7461353 L0.857142857,18.709918 L0.857142857,22.9420425 L1.07488439,23.0015213 C1.11167054,23.0115326 5.36560979,24 8.47728508,24 C13.7149833,24 16.7033168,21.9264857 17.1428571,18 L12.3693136,18" id="Fill-9" fill="#34302F" sketch:type="MSShapeGroup"></path>
            <path d="M86.2711736,20.4043553 C84.8748847,20.4043553 84.2650426,19.9939795 84.2072595,19 L79.7142857,19 C79.7519939,22.4860455 82.1324942,23.9333721 84.3632467,24.1224458 C84.5252021,24.1358743 84.705876,24.1428571 84.8998427,24.1428571 C86.270631,24.1428571 88.2857143,23.7451042 88.2857143,23.7451042 L88.2857143,20.2818872 C88.2857143,20.2818872 86.6770116,20.4043553 86.2711736,20.4043553" id="Fill-10" fill="#34302F" sketch:type="MSShapeGroup"></path>
        </g>
    </g>
</svg>